# xmcd CD database file
#
# Track frame offsets:
#	150
#	23337
#	49110
#	75842
#	102882
#	130730
#	156075
#	183060
#	204967
#	235570
#	258872
#	284567
#	309225
#
# Disc length: 4423 seconds
#
# Revision: 6
# Processed by: cddbd v1.5.1PL0 Copyright (c) Steve Scherf et al.
# Submitted via: CDex 1.51
#
DISCID=8d11450d
DTITLE=徳永英明 - シングルコレクション 1992-1997
DYEAR=1998
DGENRE=New Age
TTITLE0=恋の行方
TTITLE1=I LOVE YOU
TTITLE2=もう一度あの日のように
TTITLE3=FRIENDS
TTITLE4=僕のそばに
TTITLE5=永遠の果てに
TTITLE6=未来飛行
TTITLE7=ROUGH DIAMOND
TTITLE8=SMILE
TTITLE9=誓い
TTITLE10=情熱
TTITLE11=Rainy Blue -1997 Track-
TTITLE12=今はさよならだけを言うけど
EXTD=YEAR: 1998
EXTT0=
EXTT1=
EXTT2=
EXTT3=
EXTT4=
EXTT5=
EXTT6=
EXTT7=
EXTT8=
EXTT9=
EXTT10=
EXTT11=
EXTT12=
PLAYORDER=
